<svg version="1.1" xmlns="http://www.w3.org/2000/svg" viewBox="0 0 268.7265625 269.6533203125" width="268.7265625" height="269.6533203125">
  <!-- svg-source:excalidraw -->
  
  <rect x="0" y="0" width="268.7265625" height="269.6533203125" fill="#ffffff"></rect><g transform="translate(10 10) rotate(0 124.36328125 116.484375)"><path d="M4.683230203850865 0 L244.04333229614915 0 L247.55575494903727 1.1708075509627163 L248.7265625 4.683230203850865 L248.7265625 228.28551979614915 L247.55575494903727 231.79794244903727 L244.04333229614915 232.96875 L4.683230203850865 232.96875 L1.1708075509627165 231.79794244903727 L0 228.28551979614915 L0 4.683230203850865 L1.1708075509627163 1.1708075509627165 L4.683230203850865 0" stroke="none" stroke-width="0" fill="#ffffff"></path><path d="M4.683230203850865 0 M4.683230203850865 0 C99.89183186853082 0, 195.10043353321075 0, 244.04333229614915 0 M244.04333229614915 0 C247.16548576538304 0, 248.7265625 1.5610767346169552, 248.7265625 4.683230203850865 M248.7265625 4.683230203850865 C248.7265625 64.80297934429582, 248.7265625 124.92272848474079, 248.7265625 228.28551979614915 M248.7265625 228.28551979614915 C248.7265625 231.40767326538304, 247.16548576538304 232.96875, 244.04333229614915 232.96875 M244.04333229614915 232.96875 C171.76628881315727 232.96875, 99.4892453301654 232.96875, 4.683230203850865 232.96875 M4.683230203850865 232.96875 C1.5610767346169552 232.96875, 0 231.40767326538304, 0 228.28551979614915 M0 228.28551979614915 C0 181.8456671063819, 0 135.4058144166147, 0 4.683230203850865 M0 4.683230203850865 C0 1.5610767346169552, 1.5610767346169552 0, 4.683230203850865 0" stroke="#d7d9dc" stroke-width="1" fill="none"></path></g><g transform="translate(40 40) rotate(0 94.36328125 86.484375)"><path d="M0.003043977171182632 1.3358220301568506 C41.106160341741635 1.5974158114330201, 80.7537507358531 1.6911354130641847, 189.73731829300522 0.19288415536284445 M0.011660931631922722 0.08483080454170704 C66.07120434154932 0.3661017041084996, 132.95391478943057 1.5115268688080539, 188.49172588400543 0.0017093259841203688 M190.05546309128403 -0.6395581282675266 C189.46255315846705 50.50646435826785, 188.68551484650874 100.57845959260595, 188.2925854600966 174.0630568228662 M188.89823118261992 0.018978746607899666 C188.8819026008068 68.23680030476537, 188.05910297779425 135.23851659253708, 188.38653397373855 173.05175883360207 M188.1712222017348 173.33721243962646 C129.3396975368465 173.76053685993654, 68.24839885462424 174.61918718666536, -1.293665774911642 172.02812924012542 M188.89350619129837 173.10767266340554 C130.75978905915107 172.7729860079801, 73.31815986340516 172.72768164997458, 0.31024945788085456 173.22033136673272 M-0.05395115241408348 172.6926718197763 C-2.020635140714585 110.4850308389985, -1.5331852324580542 45.12557940289844, -0.6374266229569912 -0.020516756922006607 M-0.3435418743640184 172.85893257446588 C-0.36557522358431016 110.2791546456865, -0.40942510904802476 48.18661617308388, 0.25114137940108777 0.2455250699073076" stroke="#000000" stroke-width="0.95" fill="none"></path></g><g transform="translate(99.39453125 91.26171875) rotate(0 56.44140625 60.853515625)"><path d="M0.6002844542264938 -0.869110032916069 C32.10036358590005 -1.1338501497554825, 65.9803957205033 -1.918230585699086, 112.61365983188152 -0.26844274699687953 M0.6973604097962379 0.68434127420187 C36.529001742985564 0.9781096864781575, 74.79149177002255 0.8493320394597249, 113.26579555422067 -0.024989713728427884 M111.53613984286785 -0.4358324259519577 C113.9035380319843 45.42370970888879, 113.86654853384587 91.88342579392484, 113.33855025470257 121.02418849766255 M112.72640003114938 0.013716112077236175 C112.59989682683796 36.88246918286314, 113.32042633542866 74.7221069582389, 113.38989285379648 121.38278935998679 M112.6238476485014 120.41468456089497 C71.769758260448 121.91408061192661, 28.599332812824287 120.95354661152989, -0.5281639367341995 120.70564115345478 M112.29858082681895 121.8599351271987 C70.18254899269668 122.0150722916507, 27.75957288367207 121.50371712998383, 0.098391093313694 122.34349659532309 M0.7332320898771285 120.7532417088747 C-0.5831594980807858 88.43511952453409, -0.41049933801608857 53.95408535288879, 0.8458414763212203 0.013903501629829406 M0.6672719374299049 121.79072292894125 C0.00401428165211104 93.30718581077527, 0.7567795080162468 64.03701386594912, 0.13684691339731214 0.5373566016554832" stroke="#000000" stroke-width="0.95" fill="none"></path></g><g transform="translate(190.79296875 160.12109375) rotate(0 28.740234375 31.48046875)"><path d="M0.8696889728307724 0.7564075142145157 C23.410724591900365 -0.305965737135557, 46.472252764680896 -0.4020126617266215, 57.94441269338131 -0.9619090408086777 M0.39142049103975296 0.25852297991514206 C15.617486098810334 -0.21183300023112678, 30.944267343787946 -0.06970477108989143, 57.187039740383625 -0.11172319203615189 M58.353291019797325 0.0037853866815567017 C58.15560055904381 18.548447017872242, 58.17366744213097 37.66661023597699, 57.7361049503088 62.775962606072426 M57.55495775490999 -0.3412439897656441 C57.54659901058942 12.718687706871425, 58.127603868606386 26.480516070988962, 57.707884438335896 62.54362916201353 M57.942468628287315 62.15706230700016 C39.12131732472335 63.84908762441337, 20.222025762370315 63.65376701818168, -0.5800061374902725 63.48467470705509 M57.55108321458101 62.59175729006529 C44.45443364602397 62.98390857330669, 30.515628620923962 62.67201153389324, 0.1094130352139473 63.43756031244993 M0.3339991420507431 63.433523431420326 C0.42888541195250585 44.087550457066385, -0.42301230456971095 24.491836882126513, -0.7368307262659073 0.4440124183893204 M0.3165644481778145 62.84341549128294 C0.17009436783671844 38.66180895225843, 0.24052488503337371 13.710907674464394, -0.3903568908572197 0.08252143114805222" stroke="#000000" stroke-width="0.9" fill="none"></path></g><g transform="translate(180.9189453125 258.96875) rotate(0 38.90380859375 5.34228515625)"><text x="77.8076171875" y="8.99658203125" font-family="var(--view-mode-font)" font-size="16px" fill="#adb5bd" text-anchor="end" style="white-space: pre;" direction="ltr">Made with Eraser</text></g></svg>